# xmcd
# 
# Track frame offsets:
#     182
#     15891
#     27993
#     41876
#     61444
#     74377
#     90115
#     104376
#     120699
#     133151
#     149135
#     164838
# 
# Disc length: 2387
# 
# Revision: 0
# Processed by: cddbd v1.5.2PL0 Copyright (c) Steve Scherf et al.
# Submitted via: fre:ac v1.0.17
# 
DISCID=ad09510c
DTITLE=MUSI BABY - Chansons du soir
DYEAR=1997
DGENRE=Other
TTITLE0=Tu es dans mon coeur
TTITLE1=Bouton de rose
TTITLE2=Loyaute et Honnêteté
TTITLE3=Tous les jolis petits chevaux
TTITLE4=Au clair de la lune
TTITLE5=Quand mon bébé rêve
TTITLE6=Lorelei
TTITLE7=Le vie est pleine de joie
TTITLE8=La libellule rouge
TTITLE9=Shalom La paix
TTITLE10=Mes nuages en peluches
TTITLE11=Au revoir Reine de la Nuit
EXTD=
EXTT0=
EXTT1=
EXTT2=
EXTT3=
EXTT4=
EXTT5=
EXTT6=
EXTT7=
EXTT8=
EXTT9=
EXTT10=
EXTT11=
PLAYORDER=
